0
SECTION
2
HEADER
9
$INSUNITS
70
1
9
$ACADVER
1
AC1014
9
$HANDSEED
5
FFFF
0
ENDSEC
0
SECTION
2
TABLES
0
TABLE
2
VPORT
5
8
100
AcDbSymbolTable
0
ENDTAB
0
TABLE
2
LTYPE
5
5
100
AcDbSymbolTable
0
LTYPE
5
14
100
AcDbSymbolTableRecord
100
AcDbLinetypeTableRecord
2
BYBLOCK
70
0
0
LTYPE
5
15
100
AcDbSymbolTableRecord
100
AcDbLinetypeTableRecord
2
BYLAYER
70
0
0
ENDTAB
0
TABLE
2
LAYER
5
2
100
AcDbSymbolTable
70
2
0
LAYER
5
50
100
AcDbSymbolTableRecord
100
AcDbLayerTableRecord
2
0
70
0
6
CONTINUOUS
0
ENDTAB
0
TABLE
2
STYLE
5
3
100
AcDbSymbolTable
70
1
0
STYLE
5
11
100
AcDbSymbolTableRecord
100
AcDbTextStyleTableRecord
2
STANDARD
70
0
0
ENDTAB
0
TABLE
2
VIEW
5
6
100
AcDbSymbolTable
70
0
0
ENDTAB
0
TABLE
2
UCS
5
7
100
AcDbSymbolTable
70
0
0
ENDTAB
0
TABLE
2
APPID
5
9
100
AcDbSymbolTable
70
2
0
APPID
5
12
100
AcDbSymbolTableRecord
100
AcDbRegAppTableRecord
2
ACAD
70
0
0
ENDTAB
0
TABLE
2
DIMSTYLE
5
A
100
AcDbSymbolTable
70
1
0
ENDTAB
0
TABLE
2
BLOCK_RECORD
5
1
100
AcDbSymbolTable
70
1
0
BLOCK_RECORD
5
1F
100
AcDbSymbolTableRecord
100
AcDbBlockTableRecord
2
*MODEL_SPACE
0
BLOCK_RECORD
5
1B
100
AcDbSymbolTableRecord
100
AcDbBlockTableRecord
2
*PAPER_SPACE
0
ENDTAB
0
ENDSEC
0
SECTION
2
BLOCKS
0
BLOCK
5
20
100
AcDbEntity
100
AcDbBlockBegin
2
*MODEL_SPACE
0
ENDBLK
5
21
100
AcDbEntity
100
AcDbBlockEnd
0
BLOCK
5
1C
100
AcDbEntity
100
AcDbBlockBegin
2
*PAPER_SPACE
0
ENDBLK
5
1D
100
AcDbEntity
100
AcDbBlockEnd
0
ENDSEC
0
SECTION
2
ENTITIES
0
CIRCLE
5
100
100
AcDbEntity
8
0
100
AcDbCircle
10
-7.6499999999999995
20
-13.21345021889416
30
1.3987061727561026e-15
40
0.15000000000000002
210
0
220
-5.5511151231257852e-17
230
1
0
CIRCLE
5
101
100
AcDbEntity
8
0
100
AcDbCircle
10
7.6499999999999995
20
-11.277514098451499
30
6.9935308637805131e-16
40
0.15000000000000002
210
0
220
-5.5511151231257852e-17
230
1
0
CIRCLE
5
102
100
AcDbEntity
8
0
100
AcDbCircle
10
-7.6499999999999995
20
-11.277514098451499
30
6.9935308637805131e-16
40
0.15000000000000002
210
0
220
-5.5511151231257852e-17
230
1
0
CIRCLE
5
103
100
AcDbEntity
8
0
100
AcDbCircle
10
7.6499999999999995
20
-13.21345021889416
30
1.3987061727561026e-15
40
0.15000000000000002
210
0
220
-5.5511151231257852e-17
230
1
0
LWPOLYLINE
5
104
100
AcDbEntity
8
0
100
AcDbPolyline
90
6
70
1
43
0.0
10
-8.25
20
-13.984804845413274
42
0.41421356237309837
10
-7.9999999999999991
20
-14.234804845413271
10
7.9999999999999991
20
-14.234804845413274
42
0.41421356237309503
10
8.2500000000000018
20
-13.984804845413278
10
8.25
20
-10.234804845413265
10
-8.25
20
-10.234804845413267
0
LWPOLYLINE
5
105
100
AcDbEntity
8
0
100
AcDbPolyline
90
6
70
1
43
0.0
10
-2.2150590551181084
20
-12.944843390051497
10
-3.2573818897637818
20
-12.343058020886323
42
-0.5773502691896254
10
-3.2573818897637832
20
-12.126551669940214
10
-2.2150590551181097
20
-11.524766300775042
42
-0.57735026918962706
10
-2.0275590551181093
20
-11.633019476248096
10
-2.0275590551181151
20
-12.836590214578443
42
-0.5773502691896486
0
LWPOLYLINE
5
106
100
AcDbEntity
8
0
100
AcDbPolyline
90
6
70
1
43
0.0
10
2.0275590551181071
20
-12.836590214578449
10
2.0275590551181097
20
-11.633019476248098
42
-0.57735026918963217
10
2.2150590551181115
20
-11.524766300775042
10
3.257381889763785
20
-12.12655166994022
42
-0.5773502691896214
10
3.2573818897637818
20
-12.343058020886328
10
2.2150590551181066
20
-12.944843390051505
42
-0.57735026918962418
0
LWPOLYLINE
5
107
100
AcDbEntity
8
0
100
AcDbPolyline
90
6
70
1
43
0.0
10
5.5275590551181111
20
-12.836590214578438
10
5.5275590551181129
20
-11.633019476248105
42
-0.57735026918961785
10
5.7150590551181129
20
-11.524766300775052
10
6.7573818897637805
20
-12.126551669940218
42
-0.57735026918962495
10
6.7573818897637805
20
-12.343058020886328
10
5.715059055118112
20
-12.944843390051497
42
-0.57735026918963461
0
LWPOLYLINE
5
108
100
AcDbEntity
8
0
100
AcDbPolyline
90
4
70
1
43
0.0
10
-6.5749999999999957
20
-11.659804845413269
10
-5.4249999999999972
20
-11.659804845413269
10
-5.4249999999999972
20
-12.809804845413273
10
-6.5749999999999957
20
-12.809804845413266
0
CIRCLE
5
109
100
AcDbEntity
8
0
100
AcDbCircle
10
0.73499999999999988
20
-12.234804845413272
30
0
40
0.064999999999999655
210
0
220
-1.1102230246251568e-16
230
1
0
CIRCLE
5
110
100
AcDbEntity
8
0
100
AcDbCircle
10
0
20
-12.234804845413272
30
0
40
0.47244094488188998
210
0
220
-5.5511151231257839e-17
230
1
0
CIRCLE
5
111
100
AcDbEntity
8
0
100
AcDbCircle
10
-0.73499999999999988
20
-12.234804845413272
30
0
40
0.064999999999999739
210
0
220
-1.1102230246251568e-16
230
1
0
CIRCLE
5
112
100
AcDbEntity
8
0
100
AcDbCircle
10
-6
20
-12.234804845413272
30
0
40
0.47244094488188937
210
0
220
-5.5511151231257839e-17
230
1
0
CIRCLE
5
113
100
AcDbEntity
8
0
100
AcDbCircle
10
-6
20
-12.234804845413272
30
0
40
0.47244094488188942
210
0
220
-5.5511151231257839e-17
230
1
0
CIRCLE
5
114
100
AcDbEntity
8
0
100
AcDbCircle
10
-2.4999999999999996
20
-12.234804845413272
30
-6.9935308637805131e-16
40
0.47244094488189015
210
0
220
-5.5511151231257839e-17
230
1
0
LWPOLYLINE
5
115
100
AcDbEntity
8
0
100
AcDbPolyline
90
3
70
1
43
0.0
10
2.0275590551181093
20
-12.234804845413272
42
0.57735026918962484
10
2.7362204724409431
20
-12.643950705468912
42
0.57735026918962618
10
2.7362204724409458
20
-11.825658985357631
42
0.5773502691896264
0
CIRCLE
5
116
100
AcDbEntity
8
0
100
AcDbCircle
10
2.4999999999999996
20
-12.234804845413272
30
6.9935308637805131e-16
40
0.47244094488189015
210
0
220
-5.5511151231257839e-17
230
1
0
LWPOLYLINE
5
117
100
AcDbEntity
8
0
100
AcDbPolyline
90
3
70
1
43
0.0
10
5.5275590551181111
20
-12.234804845413272
42
0.57735026918962551
10
6.2362204724409436
20
-12.643950705468912
42
0.57735026918962573
10
6.2362204724409436
20
-11.825658985357634
42
0.57735026918962618
0
CIRCLE
5
118
100
AcDbEntity
8
0
100
AcDbCircle
10
6
20
-12.234804845413272
30
-6.9935308637805131e-16
40
0.47244094488188876
210
0
220
-5.5511151231257839e-17
230
1
0
ENDSEC
0
SECTION
2
OBJECTS
0
DICTIONARY
5
C
100
AcDbDictionary
3
ACAD_GROUP
350
D
3
ACAD_MLINESTYLE
350
17
0
DICTIONARY
5
D
100
AcDbDictionary
0
DICTIONARY
5
1A
330
C
100
AcDbDictionary
0
DICTIONARY
5
17
100
AcDbDictionary
0
ENDSEC
0
EOF
